<svg width="15" height="16" viewBox="0 0 15 16" fill="none" xmlns="http://www.w3.org/2000/svg">
<path d="M0 5.92674L0 9.59596C0 10.1005 0.375 10.5133 0.833333 10.5133L3.33333 10.5133L6.075 13.5312C6.6 14.1091 7.5 13.6963 7.5 12.8799L7.5 2.63361C7.5 1.8172 6.6 1.40442 6.075 1.98232L3.33333 5.00943L0.833333 5.00943C0.375 5.00943 0 5.42222 0 5.92674ZM11.25 7.76135C11.25 6.13772 10.4 4.74341 9.16667 4.0646L9.16667 11.4489C10.4 10.7793 11.25 9.38498 11.25 7.76135ZM9.16667 0.835687V1.01915C9.16667 1.36772 9.375 1.67044 9.66667 1.79886C11.8167 2.74368 13.3333 5.06447 13.3333 7.76135C13.3333 10.4582 11.8167 12.779 9.66667 13.7238C9.36667 13.8523 9.16667 14.155 9.16667 14.5035V14.687C9.16667 15.2649 9.69167 15.6685 10.175 15.4667C13 14.2834 15 11.2838 15 7.76135C15 4.23889 13 1.2393 10.175 0.0559763C9.69167 -0.155004 9.16667 0.257784 9.16667 0.835687V0.835687Z" fill="#BFBFBF"/>
</svg>
